<svg width="492" height="111" viewBox="0 0 492 111" fill="none" xmlns="http://www.w3.org/2000/svg">
    <text x="0" y="90" font-family="Verdana" font-size="85" fill="black">🔥</text>

    <g clip-path="url(#clip0_126_2)">
        <path
            d="M109.815 86V24.1818H146.882V30.8224H117.301V51.7102H144.105V58.3509H117.301V86H109.815ZM158.737 86V39.6364H165.86V86H158.737ZM162.359 31.9091C160.97 31.9091 159.773 31.4362 158.767 30.4904C157.781 29.5446 157.288 28.4077 157.288 27.0795C157.288 25.7514 157.781 24.6145 158.767 23.6687C159.773 22.7229 160.97 22.25 162.359 22.25C163.747 22.25 164.935 22.7229 165.921 23.6687C166.927 24.6145 167.43 25.7514 167.43 27.0795C167.43 28.4077 166.927 29.5446 165.921 30.4904C164.935 31.4362 163.747 31.9091 162.359 31.9091ZM178.908 86V39.6364H185.79V46.6392H186.273C187.118 44.3452 188.647 42.4838 190.861 41.055C193.074 39.6263 195.57 38.9119 198.347 38.9119C198.87 38.9119 199.524 38.922 200.309 38.9421C201.093 38.9622 201.687 38.9924 202.089 39.0327V46.277C201.848 46.2166 201.295 46.1261 200.429 46.0053C199.584 45.8645 198.689 45.794 197.743 45.794C195.489 45.794 193.477 46.2669 191.706 47.2127C189.955 48.1384 188.567 49.4263 187.54 51.0763C186.534 52.7063 186.031 54.5677 186.031 56.6605V86H178.908ZM228.561 86.9659C224.094 86.9659 220.24 85.9799 217.001 84.0078C213.781 82.0156 211.296 79.2386 209.545 75.6768C207.814 72.0949 206.949 67.9295 206.949 63.1804C206.949 58.4313 207.814 54.2457 209.545 50.6236C211.296 46.9813 213.731 44.1439 216.85 42.1115C219.989 40.0589 223.651 39.0327 227.837 39.0327C230.252 39.0327 232.636 39.4351 234.991 40.2401C237.345 41.045 239.488 42.353 241.42 44.1641C243.352 45.955 244.891 48.3295 246.038 51.2876C247.185 54.2457 247.759 57.888 247.759 62.2145V65.233H212.02V59.0753H240.514C240.514 56.4593 239.991 54.125 238.945 52.0724C237.919 50.0199 236.45 48.4 234.538 47.2127C232.646 46.0254 230.413 45.4318 227.837 45.4318C225 45.4318 222.545 46.1361 220.472 47.5447C218.419 48.9332 216.84 50.7443 215.733 52.978C214.626 55.2116 214.073 57.6063 214.073 60.1619V64.267C214.073 67.7685 214.676 70.7366 215.884 73.1715C217.111 75.5863 218.812 77.4276 220.985 78.6953C223.158 79.9429 225.684 80.5668 228.561 80.5668C230.433 80.5668 232.123 80.3052 233.632 79.782C235.162 79.2386 236.48 78.4337 237.587 77.3672C238.693 76.2805 239.549 74.9323 240.152 73.3224L247.034 75.2543C246.31 77.5885 245.092 79.6411 243.382 81.4119C241.672 83.1626 239.559 84.531 237.043 85.517C234.528 86.483 231.701 86.9659 228.561 86.9659ZM309.305 43.5H301.82C301.377 41.3468 300.602 39.4553 299.495 37.8253C298.409 36.1953 297.081 34.8269 295.511 33.7202C293.961 32.5933 292.241 31.7481 290.349 31.1847C288.458 30.6212 286.486 30.3395 284.433 30.3395C280.69 30.3395 277.3 31.2853 274.261 33.1768C271.242 35.0684 268.838 37.8555 267.047 41.538C265.276 45.2205 264.391 49.7382 264.391 55.0909C264.391 60.4437 265.276 64.9613 267.047 68.6438C268.838 72.3263 271.242 75.1134 274.261 77.005C277.3 78.8965 280.69 79.8423 284.433 79.8423C286.486 79.8423 288.458 79.5606 290.349 78.9972C292.241 78.4337 293.961 77.5986 295.511 76.4918C297.081 75.3649 298.409 73.9865 299.495 72.3565C300.602 70.7064 301.377 68.8149 301.82 66.6818H309.305C308.742 69.8411 307.716 72.6684 306.226 75.1637C304.737 77.659 302.886 79.782 300.673 81.5327C298.459 83.2633 295.974 84.5813 293.217 85.4869C290.48 86.3924 287.552 86.8452 284.433 86.8452C279.161 86.8452 274.472 85.5573 270.367 82.9815C266.262 80.4058 263.032 76.7434 260.678 71.9943C258.323 67.2453 257.146 61.6108 257.146 55.0909C257.146 48.571 258.323 42.9366 260.678 38.1875C263.032 33.4384 266.262 29.776 270.367 27.2003C274.472 24.6245 279.161 23.3366 284.433 23.3366C287.552 23.3366 290.48 23.7894 293.217 24.695C295.974 25.6005 298.459 26.9286 300.673 28.6793C302.886 30.4099 304.737 32.5228 306.226 35.0181C307.716 37.4933 308.742 40.3205 309.305 43.5ZM320.436 86V39.6364H327.318V46.6392H327.801C328.646 44.3452 330.175 42.4838 332.389 41.055C334.603 39.6263 337.098 38.9119 339.875 38.9119C340.398 38.9119 341.052 38.922 341.837 38.9421C342.622 38.9622 343.215 38.9924 343.618 39.0327V46.277C343.376 46.2166 342.823 46.1261 341.958 46.0053C341.112 45.8645 340.217 45.794 339.271 45.794C337.017 45.794 335.005 46.2669 333.234 47.2127C331.483 48.1384 330.095 49.4263 329.069 51.0763C328.063 52.7063 327.559 54.5677 327.559 56.6605V86H320.436ZM365.705 87.0866C362.767 87.0866 360.101 86.5333 357.706 85.4265C355.312 84.2996 353.41 82.6797 352.002 80.5668C350.593 78.4337 349.889 75.858 349.889 72.8395C349.889 70.1832 350.412 68.0301 351.458 66.38C352.505 64.7098 353.903 63.4018 355.654 62.456C357.405 61.5102 359.336 60.8059 361.449 60.343C363.582 59.8601 365.725 59.4777 367.879 59.196C370.696 58.8338 372.98 58.5621 374.731 58.381C376.501 58.1798 377.789 57.8478 378.594 57.3849C379.419 56.9221 379.832 56.1172 379.832 54.9702V54.7287C379.832 51.7505 379.017 49.4363 377.387 47.7862C375.777 46.1361 373.332 45.3111 370.052 45.3111C366.651 45.3111 363.985 46.0556 362.053 47.5447C360.121 49.0339 358.763 50.6236 357.978 52.3139L351.217 49.8991C352.424 47.0819 354.034 44.8885 356.046 43.3189C358.079 41.7292 360.292 40.6224 362.687 39.9986C365.102 39.3546 367.476 39.0327 369.81 39.0327C371.3 39.0327 373.01 39.2138 374.942 39.576C376.894 39.9181 378.775 40.6325 380.586 41.7191C382.418 42.8058 383.937 44.4458 385.144 46.6392C386.352 48.8326 386.955 51.7706 386.955 55.4531V86H379.832V79.7216H379.47C378.987 80.7277 378.182 81.8043 377.055 82.9513C375.928 84.0984 374.429 85.0743 372.557 85.8793C370.686 86.6842 368.402 87.0866 365.705 87.0866ZM366.792 80.6875C369.609 80.6875 371.984 80.1341 373.916 79.0273C375.868 77.9206 377.336 76.4918 378.323 74.7411C379.329 72.9904 379.832 71.1491 379.832 69.2173V62.6974C379.53 63.0597 378.866 63.3917 377.84 63.6935C376.833 63.9753 375.666 64.2268 374.338 64.4482C373.03 64.6494 371.752 64.8305 370.505 64.9915C369.277 65.1323 368.281 65.2531 367.516 65.3537C365.665 65.5952 363.935 65.9876 362.325 66.5309C360.735 67.0541 359.447 67.849 358.461 68.9155C357.495 69.9619 357.012 71.3906 357.012 73.2017C357.012 75.6768 357.928 77.5483 359.759 78.8161C361.61 80.0637 363.955 80.6875 366.792 80.6875ZM410.462 86L396.335 39.6364H403.821L413.842 75.1335H414.325L424.226 39.6364H431.832L441.612 75.0128H442.095L452.116 39.6364H459.602L445.476 86H438.473L428.331 50.3821H427.607L417.464 86H410.462ZM476.143 24.1818V86H469.02V24.1818H476.143Z"
            fill="#fff" />
    </g>

</svg>
    